<svg preserveAspectRatio="xMidYMid meet" data-bbox="41.594 20 116.812 160" viewBox="41.594 20 116.812 160" height="200" width="200" xmlns="http://www.w3.org/2000/svg" data-type="shape" role="presentation" aria-hidden="true" aria-labelledby="svgcid--lu8c56-1arp6d"><title id="svgcid--lu8c56-1arp6d"></title>
    <g>
        <path fill="#4169E1 " d="M124.044 54.04l7.161 10.973c-5.586 4.081-15.12 13.441-23.148 24.363-2.038-13.227-5.554-30.024-11.459-44.24l11.82-5.665L80.039 20l-6.48 31.801 12.284-.915s17.82 33.186 9.027 63.915l.037-.005a35.61 35.61 0 0 0-.549 2.563c-.685 4.01-1.082 8.116-1.271 12.212-5.842-6.576-13.156-12.667-22.065-16.44l4.464-12.32-33.892 5.989 17.661 27.228 8.124-9.258s21.184 9.78 27.787 36.827c1.736 10.921 3.86 18.403 3.86 18.403h17.522c-2.452-14.33-12.052-40.009-8.232-59.479 4.246-21.625 29.094-45.006 29.094-45.006l10.023 7.158 10.973-30.544-34.362 1.911z"></path>
    </g>
</svg>